<svg width="120" height="25" viewBox="0 0 120 25" fill="none" xmlns="http://www.w3.org/2000/svg">
<path opacity="0.9" d="M11.207 5.74224C11.5352 5.08599 12.4648 5.11334 12.7656 5.74224L14.5703 9.37896L18.5625 9.95318C19.2734 10.0626 19.5469 10.9376 19.0273 11.4571L16.1562 14.2735L16.8398 18.2383C16.9492 18.9493 16.1836 19.4961 15.5547 19.168L12 17.2813L8.41796 19.168C7.78906 19.4961 7.02343 18.9493 7.13281 18.2383L7.8164 14.2735L4.94531 11.4571C4.42578 10.9376 4.69921 10.0626 5.41015 9.95318L9.42968 9.37896L11.207 5.74224Z" fill="#FF9A60"/>
<path opacity="0.9" d="M35.207 5.74224C35.5352 5.08599 36.4648 5.11334 36.7656 5.74224L38.5703 9.37896L42.5625 9.95318C43.2734 10.0626 43.5469 10.9376 43.0273 11.4571L40.1562 14.2735L40.8398 18.2383C40.9492 18.9493 40.1836 19.4961 39.5547 19.168L36 17.2813L32.418 19.168C31.7891 19.4961 31.0234 18.9493 31.1328 18.2383L31.8164 14.2735L28.9453 11.4571C28.4258 10.9376 28.6992 10.0626 29.4102 9.95318L33.4297 9.37896L35.207 5.74224Z" fill="#FF9A60"/>
<path opacity="0.9" d="M59.207 5.74224C59.5352 5.08599 60.4648 5.11334 60.7656 5.74224L62.5703 9.37896L66.5625 9.95318C67.2734 10.0626 67.5469 10.9376 67.0273 11.4571L64.1562 14.2735L64.8398 18.2383C64.9492 18.9493 64.1836 19.4961 63.5547 19.168L60 17.2813L56.418 19.168C55.7891 19.4961 55.0234 18.9493 55.1328 18.2383L55.8164 14.2735L52.9453 11.4571C52.4258 10.9376 52.6992 10.0626 53.4102 9.95318L57.4297 9.37896L59.207 5.74224Z" fill="#FF9A60"/>
<path opacity="0.9" d="M83.207 5.74224C83.5352 5.08599 84.4648 5.11334 84.7656 5.74224L86.5703 9.37896L90.5625 9.95318C91.2734 10.0626 91.5469 10.9376 91.0273 11.4571L88.1562 14.2735L88.8398 18.2383C88.9492 18.9493 88.1836 19.4961 87.5547 19.168L84 17.2813L80.418 19.168C79.7891 19.4961 79.0234 18.9493 79.1328 18.2383L79.8164 14.2735L76.9453 11.4571C76.4258 10.9376 76.6992 10.0626 77.4102 9.95318L81.4297 9.37896L83.207 5.74224Z" fill="#FF9A60"/>
<path opacity="0.9" d="M107.207 5.74224C107.535 5.08599 108.465 5.11334 108.766 5.74224L110.57 9.37896L114.562 9.95318C115.273 10.0626 115.547 10.9376 115.027 11.4571L112.156 14.2735L112.84 18.2383C112.949 18.9493 112.184 19.4961 111.555 19.168L108 17.2813L104.418 19.168C103.789 19.4961 103.023 18.9493 103.133 18.2383L103.816 14.2735L100.945 11.4571C100.426 10.9376 100.699 10.0626 101.41 9.95318L105.43 9.37896L107.207 5.74224Z" fill="#FF9A60"/>
</svg>
